<svg width="687" height="332" viewBox="0 0 687 332" fill="none" xmlns="http://www.w3.org/2000/svg">
<path d="M302.14 65.8862C312.627 65.5887 331.601 64.3909 340.974 69.0003C353.6 75.209 355.764 92.3674 352.832 104.593C352.279 106.9 332.212 105.528 330.861 104.656C329.64 102.7 330.862 96.3672 330.745 93.7618C330.663 91.9412 330.612 91.2423 330.309 89.3968C329.614 88.6946 328.737 88.0618 327.904 87.5252C324.522 85.3474 301.277 85.6308 296.476 86.7247C288.1 88.6329 292.045 96.4285 288.965 101.341C286.501 102.59 275.046 102.241 271.38 102.279C269.602 117.022 274.757 113.797 287.379 113.455C287.679 116.927 287.162 121.097 288.409 124.369C288.999 125.918 290.202 126.697 291.681 127.328C295.745 129.062 319.343 129.296 323.218 127.635C325.523 126.647 327.162 124.78 328.029 122.441C328.441 121.332 329.158 118.53 328.526 117.419C328.295 117.012 327.74 116.986 327.305 116.86C326.139 116.618 324.719 116.137 323.557 115.78C323.509 112.349 323.582 109.752 323.297 106.287C328.86 105.944 333.64 107.532 340.045 107.402C340.199 109.821 339.78 113.868 339.776 116.687C343.966 116.785 352.423 115.047 351.537 121.164C349.85 132.768 342.366 143.821 330.731 147.21C323.239 149.393 314.124 149.146 306.404 149.214C279.83 150.189 262.263 145.161 265.357 114.081C262.924 113.991 259.358 114.335 257.105 113.843C256.04 112.702 256.09 111.604 256.096 110.074C256.136 100.518 258.51 101.727 266.494 101.916C267.988 88.3173 269.831 77.6705 282.104 69.9436C288.907 65.6605 294.435 66.0374 302.14 65.8862Z" fill="#FD01E6"/>
<path d="M174.662 187.629C172.938 187.374 169.726 187.181 168.47 186.456C165.033 181.282 182.077 170.64 187.341 170.19C200.19 169.091 213.034 169.712 225.939 169.811C230.005 169.842 234.466 169.754 238.503 169.93C238.581 173.434 238.42 185.667 237.203 188.367C236.296 189.049 235.119 189.295 234.001 189.372C230.255 189.634 226.492 189.448 222.74 189.532C214.458 189.718 206.18 190.112 197.894 190.094C195.293 190.088 192.664 190.05 190.14 190.773C188.767 192.433 187.313 194.5 187.57 196.789C187.694 197.901 188.376 198.877 189.258 199.533C195.596 204.246 214.665 196.517 229.103 206.807C230.478 207.787 232.77 209.506 233.013 211.282C233.075 211.731 232.833 211.908 232.591 212.263C230.442 213.317 227.816 212.904 225.363 213.102C228.402 213.741 235.51 214.397 236.743 217.225C241.744 228.69 236.962 242.147 226.147 248.373C223.105 250.189 216.798 252.989 213.347 253.185C196.971 254.117 180.238 253.534 163.819 253.405C160.718 253.38 163.662 234.607 164.284 233.852C167.461 232.81 190.071 233.11 195.046 233.004C199.062 233.204 208.698 233.076 212.453 232.603C216.19 228.819 218.786 223.858 211.498 222.038C209.959 221.829 209.271 221.726 207.733 221.804C203.27 221.507 198.693 221.789 194.216 221.746C189.836 221.704 186.686 222.119 183.087 219.203L182.094 218.352C176.769 217.159 175.935 217.023 171.897 213.361C172.926 212.179 172.895 212.45 174.511 212.142L175.283 212.002C175.506 211.165 175.511 211.514 175.033 210.584C172.097 208.662 170.668 210.123 167.361 206.764C166.28 203.379 164.717 190.33 167.898 188.416C170.154 188.077 172.604 188.039 174.662 187.629Z" fill="#FD01E6"/>
<path d="M182.095 218.352C186.337 218.104 198.88 217.561 202.643 218.49C198.217 219.314 185.952 218.22 183.087 219.204L182.095 218.352Z" fill="#AB0699"/>
<path d="M182.2 71.6741C186.002 72.0138 189.476 71.32 193.025 71.4779C193.364 70.7147 193.181 70.4165 193.08 69.4973C191.797 68.6878 184.182 69.9752 182.254 67.7384C182.35 67.3491 182.412 66.737 182.758 66.678C187.693 65.8369 199.64 65.9627 204.263 65.838C204.338 75.6903 202.731 87.0196 201.689 96.9407C212.296 97.1818 222.241 97.4229 232.881 97.1969C233.357 89.1249 233.763 81.67 235.077 73.642C235.447 71.3756 235.454 68.7371 236.193 66.6109C237.634 65.4976 256.213 65.3202 257.869 67.2595C259.153 72.4196 255.84 95.4175 255.365 102.163C249.408 102.233 243.453 102.357 237.499 102.535C237.431 106.246 237.391 109.611 237.515 113.326C239.422 113.309 252.077 113.822 253.481 114.177C254.589 116.394 251.553 142.889 250.895 146.919C250.691 148.172 249.184 148.67 248.136 148.524C244.489 148.015 229.832 149.601 228.13 147.523C227.964 143.803 228.993 135.076 229.469 131.082C230.028 126.387 230.125 121.508 230.601 117.03C222.101 117.661 209.133 116.814 199.944 117.062C199.834 121.816 197.942 145.047 196.363 147.884C195.009 149.027 176.38 148.669 174.455 147.832C173.785 146.942 174.123 144.25 174.365 143.41C175.529 139.383 175.651 121.602 177.581 119.184C178.354 118.818 178.679 118.654 179.506 118.446L179.844 118.228L179.177 117.731L178.147 117.392C177.366 116.415 177.367 114.93 177.235 113.65C174.853 113.677 172.102 113.529 169.692 113.456C169.659 112.001 169.814 110.254 169.765 108.868C169.481 100.959 172.36 101.952 178.793 100.932C179.508 93.6998 180.074 78.5183 181.74 72.428L182.2 71.6741Z" fill="#FD01E6"/>
<path d="M179.177 117.731C182.211 117.786 185.155 117.756 188.149 118.292L188.058 118.459C186.538 118.564 180.748 119.052 179.506 118.446L179.844 118.228L179.177 117.731Z" fill="#AB0699"/>
<path d="M445.38 169.525C445.544 169.471 446.255 169.374 446.473 169.339C447.339 170.652 446.608 187.431 445.061 188.912C441.153 189.778 426.564 189.563 421.667 189.618C416.108 189.68 407.565 190.065 402.238 189.873C402.191 193.657 402.056 198.192 401.362 201.891C413.23 201.019 425.065 202.643 436.97 202.277C438.268 202.237 439.328 202.558 440.174 203.53C440.194 204.589 440.284 205.211 439.754 206.146C437.742 207.722 419.02 205.168 416.732 207.952C416.94 208.467 416.967 208.856 417.514 208.979C421.593 209.897 436.373 208.489 439.389 209.885C440.257 211.562 439.613 219.318 438.48 220.892C437.165 222.715 430.127 221.954 427.715 221.918C421.707 221.877 415.696 221.906 409.691 222.005C407.192 222.031 402.379 221.91 400.128 222.265C399.329 223.412 399.571 223.5 399.433 225.102C399.209 226.432 399.309 228.635 399.091 230.321C398.098 238.047 397.578 245.675 396.622 253.419C393.586 253.703 375.687 254.141 374.134 252.651C373.617 249.021 374.895 244.834 375.113 241.237C375.62 232.915 376.509 225.118 377.72 216.873C375.449 216.799 368.357 217.268 367.26 216.703C365.613 215.115 365.613 209.045 367.217 207.58C369.209 205.758 375.512 206.62 378.354 206.518C378.588 203.654 379.115 199.276 379.394 196.402C379.954 190.675 380.393 175.705 381.95 171.097C383.634 169.144 396.941 169.597 399.906 169.587L428.902 169.608C433.418 169.628 441.126 169.881 445.38 169.525Z" fill="#FD01E6"/>
<path d="M428.11 66.3614C432.602 66.3031 448.965 65.6146 452.316 66.1679C455.362 66.6706 465.778 91.4754 469.039 92.7524C471.575 91.2329 485.1 70.7368 487.649 67.4705C489.716 64.8208 509.209 66.4057 514.23 66.005C513.539 67.28 512.795 68.5258 511.996 69.7391C504.137 81.5449 494.603 92.965 486.297 104.492C485.412 105.718 484.11 107.373 482.567 107.673L482.366 107.71C479.686 108.224 468.176 108.159 464.117 108.382C464.195 109.655 464.389 111.087 464.53 112.367C468.458 115.86 471.397 114.775 475.986 115.668C476.361 115.741 477.109 115.967 477.311 116.294C478.938 118.944 475.929 141.568 475.023 145.902C473.054 145.833 470.813 145.706 468.908 146.223L467.173 146.266C465.785 145.757 465.553 145.678 464.081 145.611L463.359 145.957C463.108 146.856 463.151 147.819 462.571 148.018C460.468 148.738 457.908 148.212 455.704 148.6C453.655 148.978 451.048 147.264 448.925 146.982C447.429 146.784 446.376 146.709 444.836 146.435C447.982 145.41 449.2 145.359 452.511 145.004C452.96 142.41 453.189 137.465 453.4 134.684C453.843 128.28 454.393 121.885 455.05 115.5C451.924 115.651 449.274 115.504 446.221 114.859C444.816 112.731 444.239 110.834 443.444 108.447C446.587 108.236 448.982 107.974 452.196 107.927C449.965 103.038 445.01 95.4259 442.243 90.6897L431.924 73.363C430.485 70.8968 429.66 68.8263 428.11 66.3614Z" fill="#FD01E6"/>
<path d="M457.171 169.517C462.273 169.194 470.981 169.559 476.392 169.482C492.242 169.258 508.199 169.389 524.036 170.062L524.586 174.279C521.768 174.118 511.815 173.43 510.97 176.504C512.671 178.02 520.916 176.809 523.402 178.016C524.026 179.087 524.026 181.023 523.848 182.245C523.127 187.169 525.076 189.762 518.649 189.497C512.248 189.232 505.439 190.237 499.048 190.08C498.646 195.904 498.045 201.713 497.254 207.498C493.181 207.497 487.401 208.088 483.691 207.648L483.735 213.378C484.949 214.004 485.567 214.838 486.502 215.35C488.723 216.563 492.604 216.534 495.197 216.658C497.384 220.723 494.567 231.67 494.04 236.466C493.55 240.932 493.705 249.284 491.99 253.049C490.384 254.009 471.115 253.769 470.049 252.787C469.16 248.66 472.994 222.95 473.735 216.895C472.316 216.642 471.095 216.495 469.787 215.858C468.801 214.439 468.039 209.387 468.318 207.605C468.848 207.184 473.319 206.876 474.43 206.737C474.611 201.741 475.205 194.983 475.778 190.019C472.531 190.03 468.697 189.57 465.289 189.518C460.753 189.449 455.812 189.681 451.364 189.325C450.774 187.564 451.921 171.102 452.951 170.02C454.202 169.39 455.745 169.524 457.171 169.517Z" fill="#FD01E6"/>
<path d="M373.563 65.8791C377.246 65.7816 386.364 65.4556 389.426 66.3007C391.764 70.2756 387.954 87.818 387.86 90.6987C387.139 112.699 386.78 104.14 371.134 106.178L370.92 107.783C370.222 113.172 371.232 112.046 374.415 116.164C376.924 116.345 382.841 116.226 384.445 117.771C385.606 119.755 384.438 125.792 384.21 128.577C396.622 128.282 409.124 128.517 421.549 128.552C422.884 128.555 424.575 128.597 425.457 129.555C426.282 132.373 424.991 143.108 424.752 146.863C424.29 147.542 424.135 147.641 423.481 148.145C419.862 148.881 365.422 148.891 361.124 148.14C360.702 148.066 360.437 148.099 360.209 147.682C359.001 145.484 361.94 120.987 362.818 117.265C361.463 117.107 356.68 116.797 355.848 116.212C355.1 114.357 355.392 108.528 356.452 106.788C356.962 105.953 362.044 105.844 363.416 105.734C363.848 99.5087 365.009 92.6511 365.838 86.4095C366.482 81.578 366.525 70.396 367.729 66.3305C369.179 65.7956 371.919 65.9033 373.563 65.8791Z" fill="#FD01E6"/>
<path d="M253.094 169.561C257.189 169.876 272.52 169.018 274.576 170.324C274.957 172.464 274.267 177.371 274.052 179.794L272.003 201.052C274.132 201.016 285.582 200.978 286.999 201.421L287.18 201.907C284.944 204.834 278.959 204.098 274.735 207.811C274.126 210.136 273.892 211.33 273.601 213.714C269.437 213.715 264.126 214.198 260.296 214.054C260.55 215.907 260.747 217.361 260.824 219.244C265.256 219.301 271.605 219.195 275.751 220.589C273.394 220.782 268.659 220.771 266.865 221.128C266.506 223.178 268.013 222.722 269.033 224.061C270.968 226.598 270.04 230.887 269.753 233.831C268.703 239.545 267.015 247.168 267.141 253.01C265.615 254.476 251.117 253.034 248.313 253.537C247.09 253.757 246.148 253.424 245.206 252.647C244.588 250.851 245.117 250.971 245.535 249.333C246.92 243.913 245.383 224.971 248.639 221.435C249.226 221.291 249.751 221.151 250.349 221.062L249.762 220.312C248.165 220.012 248.509 220.297 247.397 219.319C247.026 217.455 247.416 217.344 246.331 216.05C244.716 215.609 243.885 215.944 242.81 214.986L242.507 214.126C243.804 212.359 253.333 214.097 255.279 212.459C255.235 211.119 255.42 211.543 254.704 210.475C253.471 209.687 248.852 209.414 249.032 208.194C250.77 196.478 249.889 180.815 253.094 169.561Z" fill="#FD01E6"/>
<path d="M249.762 220.311C253.017 220.122 255.697 219.966 258.943 220.232C256.874 220.996 252.56 220.725 250.349 221.062L249.762 220.311Z" fill="#AB0699"/>
<path d="M366.555 169.531C368.182 170.664 365.858 203.297 364.144 206.44C362.265 207.571 351.165 207.505 348.237 207.579L348.361 212.789C349.515 213.917 350.393 215.014 351.413 216.25C355.311 216.106 359.082 216.724 363.151 216.62C363.13 223.978 362.047 228.452 361.312 235.463C360.729 241.069 360.44 247.66 359.977 253.479C355.851 253.729 350.722 253.6 346.583 253.519C344.654 253.548 338.847 254.005 337.553 252.716C336.892 247.428 338.706 242.349 338.955 237.429C339.3 230.542 340.246 223.351 340.582 216.598C334.867 216.782 333.702 216.551 335.55 210.693L333.964 207.227C336.65 207.058 339.33 206.84 342.007 206.572L342.001 206.394C341.9 202.375 342.467 197.179 342.809 193.101C343.463 185.28 343.802 177.208 345.925 169.639L366.555 169.531Z" fill="#FD01E6"/>
<path d="M298.635 220.53C286.513 220.781 282.437 221.554 282.966 207.968C282.993 207.275 283.159 206.975 283.656 206.582C284.745 207.129 286.037 207.679 287.064 206.592C300.714 192.143 313.468 176.865 327.133 162.408C329.236 160.183 334.27 152.724 337.247 153.636C337.261 153.732 337.284 153.827 337.291 153.923C337.475 155.724 307.856 195.151 303.798 199.515C302.466 201.614 298.707 207.105 298.432 209.283C299.77 210.043 298.5 212 299 211C299.42 211.97 299.191 212.399 299.187 212.678C299.164 214.697 308.805 214.541 310.138 214.58C314.72 214.192 321.587 213.506 325.198 216.665C327.044 218.281 327.401 220.057 327.915 222.443C327.675 223.271 327.104 225.212 326.615 225.835C320.873 233.138 314.923 240.169 308.549 246.927C306.822 248.758 303.954 252.54 302.159 253.92C299.93 253.978 297.083 255.581 294.927 252.807C299.343 246.267 305.258 240.059 309.18 233.839C309.567 232.877 310.964 229.507 310.657 229.197C312.942 221.277 311.2 221.3 310.259 220.887C306.574 220.503 302.374 220.565 298.635 220.53Z" fill="#FD01E6"/>
<path d="M294.927 252.807C297.084 255.581 299.93 253.978 302.159 253.92C299.16 258.079 294.92 262.173 291.445 266.059C289.949 267.732 285.452 273.288 284.12 274.286C282.968 276.681 272.354 287.999 269.294 289.123L268.91 288.898C269.157 286.94 279.072 274.084 281.011 271.332C281.619 270.079 293.968 253.682 294.927 252.807Z" fill="#FD01E6"/>
<path d="M281.011 271.332C281.067 273.489 278.557 276.218 277.181 277.995L278.059 279.452C280.709 279.204 281.45 274.638 284.12 274.286C282.968 276.681 272.354 287.999 269.294 289.123L268.91 288.898C269.157 286.94 279.072 274.084 281.011 271.332Z" fill="#E100C8"/>
<path d="M199.983 232.011L199.443 231.938L199.181 231.565C200.642 227.803 202.749 226.335 205.312 223.203C205.734 222.688 207.714 222.84 208.522 222.856C208.427 223.745 208.147 225.533 208.393 226.337C208.255 227.473 208.077 228.164 208.493 229.229L209.178 229.908L209.593 229.866L209.577 228.566C210.81 229.601 210.153 231.014 209.173 231.946L209.253 231.971C207.105 232.978 205.645 232.693 203.264 232.643C203.963 232.501 204.692 232.498 205.445 232.335C203.553 231.681 202.492 231.647 200.487 231.611L200.724 231.736L199.983 232.011Z" fill="#FD01E6"/>
<path d="M211.498 222.038C218.786 223.858 216.19 228.819 212.453 232.603C208.698 233.076 199.062 233.204 195.046 233.004C196.917 232.588 199.381 232.689 201.338 232.683L203.263 232.643C205.645 232.693 207.104 232.978 209.252 231.971L209.172 231.946C210.152 231.014 210.809 229.601 209.576 228.566L209.592 229.866L209.178 229.908L208.492 229.229C208.076 228.163 208.254 227.473 208.393 226.337C212.805 225.24 209.906 224.766 211.498 222.038Z" fill="#F200DA"/>
<path d="M455.704 148.6C457.908 148.211 460.467 148.738 462.571 148.018C463.151 147.819 463.107 146.856 463.359 145.957L464.08 145.61C465.553 145.678 465.784 145.757 467.173 146.266L466.915 146.722C469.213 147.369 473.567 146.694 474.493 147.875C473.194 149.736 458.401 149.054 455.704 148.6Z" fill="#FD01E6"/>
<path d="M166.901 70.9206C170.597 70.1036 176.793 69.8726 180.641 70.4041C181.531 70.5272 181.765 71.0457 182.201 71.6741L181.741 72.428C180.539 71.2643 170.581 71.8113 166.901 70.9206Z" fill="#E100C8"/>
<path d="M168.701 117.526C171.625 117.442 173.86 117.31 176.758 117.912L176.963 118.334L175.874 118.52L176.505 118.508L174.853 118.643C172.705 118.603 168.26 118.64 166.343 118.237C166.838 117.677 167.792 117.693 168.701 117.526Z" fill="#E100C8"/>
<path d="M207.733 221.804C209.272 221.726 209.959 221.829 211.498 222.038C209.907 224.766 212.806 225.24 208.394 226.337C208.147 225.533 208.427 223.745 208.522 222.856C209.4 222.895 209.133 223.014 209.692 222.551L210.294 222.728L209.522 222.83L210.319 222.662C209.697 222.25 208.623 222.263 207.733 221.804Z" fill="#FD01E6"/>
<path d="M475.022 145.902C476.294 145.916 483.201 146.213 484.137 146.527C478.548 147.657 474.459 146.058 468.907 146.223C470.813 145.706 473.053 145.832 475.022 145.902Z" fill="#E100C8"/>
<path d="M171.897 213.361C170.74 213.381 168.493 213.543 167.748 212.53C169.513 211.358 172.428 211.926 174.511 212.142C172.896 212.45 172.926 212.179 171.897 213.361Z" fill="#FD01E6"/>
<path d="M161.797 186.988C162.845 186.888 164.762 186.481 165.279 187.549C164.257 188.187 163.168 187.939 161.94 187.835C160.796 187.767 160.271 187.743 159.141 187.488C159.77 187.016 160.876 187.078 161.797 186.988Z" fill="#FD01E6"/>
<path d="M528.064 176.566C530.429 176.034 533.079 176.32 535.464 176.59C533.14 177.106 530.322 177.372 528.064 176.566Z" fill="#E100C8"/>
<path d="M199.982 232.011L200.723 231.736L200.487 231.611C202.492 231.647 203.553 231.681 205.444 232.335C204.692 232.498 203.963 232.501 203.263 232.643L201.338 232.683L199.982 232.011Z" fill="#FD01E6"/>
</svg>
