<svg preserveAspectRatio="none" width="100%" height="100%" overflow="visible" style="display: block;" viewBox="0 0 2951.82 2325.25" fill="none" xmlns="http://www.w3.org/2000/svg">
<g id="Group 51">
<g id="Group 48">
<circle id="Ellipse 5" cx="1404.66" cy="1427.68" r="398.711" stroke="var(--stroke-0, black)" stroke-width="51.1714"/>
<circle id="Ellipse 6" cx="1404.66" cy="1427.68" r="687.587" stroke="var(--stroke-0, black)" stroke-width="56.8254"/>
<path id="Ellipse 7" d="M783.93 816.904C633.872 973.381 541.659 1185.76 541.659 1419.68C541.659 1900.72 931.619 2290.68 1412.66 2290.68C1893.7 2290.68 2283.66 1900.72 2283.66 1419.68C2283.66 1185.93 2191.58 973.683 2041.71 817.238" stroke="var(--stroke-0, black)" stroke-width="69.127"/>
<line id="Line 1" x1="1395.19" y1="1022.33" x2="1395.19" y2="753.355" stroke="var(--stroke-0, black)" stroke-width="34.0952"/>
<path id="Line 2" d="M1001.2 1420.11L724.647 1488.3" stroke="var(--stroke-0, black)" stroke-width="34.0952"/>
<path id="Line 3" d="M1813.8 1420.11L2090.35 1488.3" stroke="var(--stroke-0, black)" stroke-width="34.0952"/>
<path id="Line 4" d="M897.387 942.225L1114.88 1154.92" stroke="var(--stroke-0, black)" stroke-width="34.0952"/>
<path id="Line 5" d="M1908.51 935.566L1695.81 1153.06" stroke="var(--stroke-0, black)" stroke-width="34.0952"/>
<path id="Line 8" d="M1821.61 873.119L2947.16 571.53" stroke="var(--stroke-0, black)" stroke-width="36"/>
<path id="Line 7" d="M1000.7 873.119L4.65874 606.229" stroke="var(--stroke-0, black)" stroke-width="36"/>
<path id="Vector 1" d="M1125.32 5.7984L1275.34 767.337" stroke="var(--stroke-0, black)" stroke-width="60"/>
<path id="Vector 2" d="M1511.48 767.338L1661.44 6.13567" stroke="var(--stroke-0, black)" stroke-width="60"/>
</g>
<path id="Vector 3" d="M1771.16 1562.84H1033.16L622.159 1754.84" stroke="var(--stroke-0, black)" stroke-width="60"/>
<path id="Vector 4" d="M1057.66 1562.84H1795.66L2206.66 1754.84L2125.66 1872.34L1991.16 2018.34L1869.66 2110.84L1734.16 2182.34L1571.16 2225.84L1448.66 2245.34L1315.66 2234.84L1182.66 2207.34L1057.66 2153.84L942.659 2089.84L869.659 2037.84L781.159 1945.34L721.159 1872.34L651.659 1766.34L1057.66 1562.84Z" fill="var(--fill-0, black)" stroke="var(--stroke-0, black)" stroke-width="60"/>
<path id="Vector 5" d="M1233.66 1531.34C1248.23 1531.34 1467.4 1531.34 1575.16 1531.34" stroke="var(--stroke-0, black)" stroke-width="73.9189" stroke-linecap="round"/>
</g>
</svg>
