<svg width="1582" height="1582" viewBox="0 0 1582 1582" fill="none" xmlns="http://www.w3.org/2000/svg">
<rect width="1582" height="1582" fill="#21A55A"/>
<path d="M338.997 973H257.247V604.187H338.997V973ZM503.569 979.433C479.446 979.433 458.004 974.519 439.241 964.691C420.658 954.684 406.005 941.015 395.284 923.682C384.741 906.17 379.47 886.157 379.47 863.643C379.47 841.128 384.741 821.115 395.284 803.603C406.005 785.913 420.658 771.975 439.241 761.79C458.004 751.605 479.446 746.512 503.569 746.512C527.692 746.512 548.956 751.605 567.361 761.79C585.766 771.975 600.15 785.913 610.514 803.603C620.878 821.115 626.06 841.128 626.06 863.643C626.06 886.157 620.878 906.17 610.514 923.682C600.15 941.015 585.766 954.684 567.361 964.691C548.956 974.519 527.692 979.433 503.569 979.433ZM503.569 912.425C512.861 912.425 520.902 910.37 527.692 906.26C534.482 902.15 539.754 896.343 543.506 888.838C547.259 881.333 549.135 872.845 549.135 863.374C549.135 853.725 547.259 845.148 543.506 837.643C539.754 830.138 534.482 824.242 527.692 819.953C520.902 815.665 512.861 813.52 503.569 813.52C494.277 813.52 486.147 815.665 479.178 819.953C472.388 824.242 467.027 830.138 463.096 837.643C459.344 845.148 457.467 853.725 457.467 863.374C457.467 872.845 459.344 881.333 463.096 888.838C467.027 896.343 472.388 902.15 479.178 906.26C486.147 910.37 494.277 912.425 503.569 912.425ZM818.562 752.945H910.766L807.037 858.014L921.487 973H827.139L742.173 884.549V973H660.691V604.187H742.173V829.602L818.562 752.945ZM1103.57 973V937.352C1101.96 940.925 1097.85 946.107 1091.24 952.898C1084.81 959.688 1076.23 965.852 1065.51 971.392C1054.79 976.752 1042.28 979.433 1027.98 979.433C1006.54 979.433 987.779 974.251 971.697 963.887C955.615 953.344 943.107 939.317 934.173 921.806C925.238 904.116 920.771 884.549 920.771 863.106C920.771 841.664 925.238 822.187 934.173 804.675C943.107 786.985 955.615 772.869 971.697 762.326C987.779 751.783 1006.54 746.512 1027.98 746.512C1041.74 746.512 1053.8 748.746 1064.17 753.213C1074.53 757.501 1082.93 762.683 1089.36 768.759C1095.8 774.656 1100.26 780.106 1102.77 785.109V752.945H1183.71V973H1103.57ZM1000.64 863.106C1000.64 873.113 1002.97 882.137 1007.61 890.178C1012.26 898.04 1018.42 904.205 1026.11 908.672C1033.97 913.139 1042.64 915.373 1052.11 915.373C1061.94 915.373 1070.6 913.139 1078.11 908.672C1085.61 904.205 1091.51 898.04 1095.8 890.178C1100.26 882.137 1102.5 873.113 1102.5 863.106C1102.5 853.1 1100.26 844.165 1095.8 836.303C1091.51 828.262 1085.61 822.008 1078.11 817.541C1070.6 812.895 1061.94 810.572 1052.11 810.572C1042.64 810.572 1033.97 812.895 1026.11 817.541C1018.42 822.008 1012.26 828.262 1007.61 836.303C1002.97 844.165 1000.64 853.1 1000.64 863.106ZM1316.9 973H1235.15V604.187H1316.9V973Z" fill="white"/>
</svg>
