<svg xmlns="http://www.w3.org/2000/svg" viewBox="0 0 64 64" aria-label="Ediz Yılmaz">
  <path fill="#e63e3e" transform="translate(16.96 54.52) scale(.030026 -.030026)" d="M492-16Q332-16 237 44Q142 104 101 217Q60 330 60 489V1092Q60 1301 180 1408.5Q300 1516 510 1516Q942 1516 942 1092V983Q942 785 938 717H418V427Q418 387 423 348.5Q428 310 445.5 285Q463 260 502 260Q558 260 572 308.5Q586 357 586 435V579H942V494Q942 326 900.5 212.5Q859 99 760.5 41.5Q662-16 492-16ZM416 895H586V1097Q586 1178 566 1213.5Q546 1249 506 1249Q463 1249 439.5 1215Q416 1181 416 1097Z"/>
</svg>
